<svg width="1994" height="1315" xmlns="http://www.w3.org/2000/svg" xmlns:xlink="http://www.w3.org/1999/xlink" xml:space="preserve" overflow="hidden"><defs><clipPath id="clip0"><rect x="547" y="583" width="1994" height="1315"/></clipPath></defs><g clip-path="url(#clip0)" transform="translate(-547 -583)"><rect x="547" y="583" width="1994" height="1315" fill="#FFFFFF"/><path d="M880.5 1567.06 2177.59 1567.06 2177.59 1573.94 880.5 1573.94ZM2173 1556.75 2200.5 1570.5 2173 1584.25Z" fill="#0EAFE0"/><path d="M880.5 910.5 880.5 1570.5" stroke="#0EAFE0" stroke-width="6.875" stroke-miterlimit="8" fill="none" fill-rule="evenodd"/><path d="M877.5 1047.46C989.167 1099.04 1100.83 1150.62 1210.8 1152.46 1320.77 1154.3 1428.47 1091.67 1537.3 1058.51 1646.13 1025.35 1753.26 942.453 1863.8 953.507 1974.33 964.56 2140.42 1087.99 2200.5 1124.83" stroke="#02485E" stroke-width="6.875" stroke-miterlimit="8" fill="none" fill-rule="evenodd"/><path d="M877.5 1052.5 2200.9 1052.5" stroke="#0EAFE0" stroke-width="6.875" stroke-miterlimit="8" stroke-dasharray="55 20.625" fill="none" fill-rule="evenodd"/><text font-family="Poppins,Poppins_MSFontService,sans-serif" font-style="italic" font-weight="400" font-size="64" transform="matrix(1 0 0 1 2090 1656)">t</text><text font-family="Poppins,Poppins_MSFontService,sans-serif" font-style="italic" font-weight="400" font-size="64" transform="matrix(1 0 0 1 736.671 1006)">v(t)</text><path d="M1169.75 754.382 1262.63 1024.36 1256.13 1026.59 1163.25 756.618ZM1270.9 1016.67 1266.84 1047.15 1244.89 1025.62Z" fill="#0EAFE0"/><text font-family="Poppins,Poppins_MSFontService,sans-serif" font-style="italic" font-weight="400" font-size="64" transform="matrix(1 0 0 1 904.156 736)">DC Component</text></g></svg>